<?xml version="1.0"?>
<svg xmlns="http://www.w3.org/2000/svg" xmlns:xlink="http://www.w3.org/1999/xlink" version="1.1" viewBox="0 0 30 30" enable-background="new 0 0 30 30" width="512px" height="512px"><g><g>
    <g>
      <path d="m29,15h-3v-6c0-1.657-1.343-3-3-3-1.657,0-3,1.343-3,3v11c0,0.553-0.447,1-1,1-0.553,0-1-0.447-1-1v-14c0-1.657-1.343-3-3-3-1.657,0-3,1.343-3,3v18c0,0.553-0.447,1-1,1-0.553,0-1-0.447-1-1v-12c0-1.657-1.343-3-3-3-1.657,0-3,1.343-3,3v3h-3c-0.553,0-1,0.447-1,1 0,0.553 0.447,1 1,1h4c0.553,0 1-0.447 1-1v-4c0-0.553 0.447-1 1-1 0.553,0 1,0.447 1,1v12c0,1.657 1.343,3 3,3 1.657,0 3-1.343 3-3v-18c0-0.553 0.447-1 1-1 0.553,0 1,0.447 1,1v14c0,1.657 1.343,3 3,3 1.657,0 3-1.343 3-3v-11c0-0.553 0.447-1 1-1 0.553,0 1,0.447 1,1v7c0,0.553 0.447,1 1,1h4c0.553,0 1-0.447 1-1 0-0.553-0.447-1-1-1z" data-original="#000000" class="active-path" fill="#ffffff"/>
    </g>
  </g></g> </svg>
