<?xml version="1.0" encoding="utf-8"?>
<!-- Generator: Adobe Illustrator 24.0.0, SVG Export Plug-In . SVG Version: 6.00 Build 0)  -->
<svg version="1.1" id="Layer_1" xmlns="http://www.w3.org/2000/svg" xmlns:xlink="http://www.w3.org/1999/xlink" x="0px" y="0px"
	 viewBox="0 0 1347.56 1031.31" style="enable-background:new 0 0 1347.56 1031.31;" xml:space="preserve">
<style type="text/css">
	.st0{fill:#4141FF;}
</style>
<path class="st0" d="M1221.64,259.79c1.3,0,2.71-0.18,4.24-0.53l57.37-13.4c0.37-0.08,0.74-0.13,1.09-0.13
	c2.54,0,4.73,2.05,4.73,4.71v23.99c0,2.18-1.51,4.08-3.66,4.58l-59.54,13.9c-5.36,1.25-9.9,1.88-13.85,1.88
	c-7.4,0-12.67-2.23-17.21-6.81c-6.73-7.07-10.21-17.99-10.21-32.61c0-15.28,3.91-29.25,11.08-39.12
	c6.51-9.27,16.29-15.1,30.19-18.34l57.37-13.4c0.37-0.09,0.73-0.13,1.09-0.13c2.54,0,4.73,2.05,4.73,4.71v23.99
	c0,2.18-1.51,4.08-3.66,4.58l-57.16,13.35c-10.42,2.44-16.29,8.9-16.29,17.98C1211.97,255.94,1215.52,259.79,1221.64,259.79
	L1221.64,259.79z M1221.63,553.24c1.3,0,2.72-0.17,4.24-0.53l57.37-13.4c0.37-0.08,0.74-0.12,1.1-0.12c2.54,0,4.73,2.05,4.73,4.7
	v23.99c0,2.18-1.51,4.08-3.66,4.58l-59.54,13.91c-5.36,1.25-9.9,1.88-13.84,1.88c-7.4,0-12.68-2.23-17.21-6.81
	c-6.73-7.07-10.21-17.99-10.21-32.6c0-15.28,3.91-29.25,11.08-39.13c6.51-9.27,16.29-15.09,30.19-18.34l57.37-13.39
	c0.37-0.09,0.74-0.13,1.1-0.13c2.54,0,4.73,2.05,4.73,4.7v23.99c0,2.18-1.51,4.08-3.66,4.58l-57.16,13.35
	c-10.42,2.43-16.29,8.9-16.29,17.97C1211.97,549.39,1215.52,553.24,1221.63,553.24L1221.63,553.24z M1292.98,362.28
	c0,13.06-5.65,24.57-16.08,31.88c11.08,4.28,16.08,12.41,16.08,26.36c0,9.75-3.04,19.09-8.91,26.44
	c-6.51,8.16-13.9,12.32-29.1,15.87l-60.63,14.16c-0.37,0.08-0.74,0.12-1.1,0.12c-2.55,0-4.73-2.05-4.73-4.71v-23.99
	c0-2.18,1.51-4.08,3.65-4.58l56.94-13.3c10.2-2.38,16.5-8.72,16.5-16.91c0-6.47-3.93-9.96-10.62-9.96c-1.78,0-3.74,0.25-5.89,0.75
	l-54.77,12.79c-0.37,0.09-0.74,0.13-1.1,0.13c-2.54,0-4.73-2.05-4.73-4.7v-24c0-2.18,1.51-4.08,3.65-4.58l55.86-13.04
	c11.08-2.59,17.59-8.99,17.59-17.39c0-3.99-1.73-7.35-4.77-8.85c-1.43-0.6-2.82-0.92-4.61-0.92c-2.01,0-4.53,0.4-8.21,1.26
	l-53.68,12.54c-0.37,0.08-0.74,0.13-1.1,0.13c-2.55,0-4.73-2.05-4.73-4.71v-23.99c0-2.18,1.51-4.08,3.65-4.58l96.9-22.63v29.93
	c0,2.19-1.51,4.08-3.66,4.58l-8.51,1.99C1287.98,341.74,1292.98,348.99,1292.98,362.28L1292.98,362.28z M1264.02,675.65
	c-0.39,0.14-0.78,0.21-1.17,0.21c-1.87,0-3.54-1.55-3.54-3.55v-26.46l1.96-0.46c4.56-1.07,8.03-6.09,8.03-11.62
	c0-4.04-2.13-6.58-5.25-6.58c-0.47,0-0.97,0.06-1.48,0.18c-4.13,0.96-6.52,4.62-8.91,13.82c-8.03,30.66-17.37,43.25-34.96,47.36
	c-2.74,0.64-5.36,0.95-7.85,0.95c-16,0-26.25-12.96-26.25-34.62c0-22.28,10.16-39.56,27.26-47.02c0.62-0.27,1.26-0.4,1.88-0.4
	c2.5,0,4.75,2.03,4.75,4.73v22.23c0,1.8-1.06,3.43-2.68,4.23c-5.4,2.7-7.53,5.69-7.53,10.69c0,3.81,2.25,6.27,5.51,6.27
	c0.53,0,1.08-0.06,1.66-0.2c4.57-1.06,6.95-4.94,11.3-19.69c6.95-23.98,17.16-36.12,33.01-39.81c2.63-0.61,5.14-0.91,7.53-0.91
	c15.72,0,25.7,13.03,25.7,34.56C1292.98,652.05,1282.25,669.12,1264.02,675.65L1264.02,675.65z M1318.17,718.23
	c-1.45,0.34-2.84,0.5-4.16,0.5c-8.51,0-14.16-6.73-13.08-16.79c0.96-8.97,7.39-16.67,16.09-19.27c2.03-0.61,3.96-0.9,5.76-0.9
	c7.87,0,13.2,5.55,13.2,14.58C1335.98,706.77,1328.6,715.79,1318.17,718.23L1318.17,718.23z M1287.24,724.34l-95.81,22.38
	c-0.18,0.04-0.37,0.07-0.55,0.07c-1.27,0-2.36-1.03-2.36-2.36v-28.82c0-1.1,0.76-2.04,1.83-2.3l95.89-22.39
	c0.18-0.04,0.36-0.06,0.53-0.06c1.24,0,2.3,1,2.3,2.29v28.9C1289.07,723.15,1288.32,724.1,1287.24,724.34L1287.24,724.34z
	 M1277.15,842.42c-0.46,0.68-1.21,1.03-1.97,1.03c-0.56,0-1.13-0.2-1.59-0.61l-16.13-14.49c-0.92-0.82-1.02-2.19-0.3-3.17
	c4.7-6.39,6.72-12.27,6.72-18.98c0-11.28-7.66-18.69-18.48-18.69c-1.93,0-3.96,0.24-6.06,0.73c-14.55,3.39-25.63,16.83-25.63,31.45
	c0,5.44,1.44,9.08,5.79,13.91c0.78,0.86,0.78,2.17,0.03,3.05l-18.29,21.59c-0.47,0.56-1.15,0.85-1.83,0.85
	c-0.6,0-1.2-0.22-1.65-0.69c-9.13-9.35-13.15-20.24-13.15-34.79c0-15.28,5.86-31.71,15.85-44.67c9.5-12.59,23.06-21.08,38.6-24.51
	c4.06-0.9,8.01-1.33,11.78-1.33c24.66,0,42.36,18.39,42.13,45.36C1292.85,813.25,1288.07,826.42,1277.15,842.42L1277.15,842.42z
	 M625.44,856.78c-45.93,73.08-122.87,127.71-225.9,147.45c-20.93,4-42.73,6.33-64.51,6.33c-45.09,0-90.12-9.98-127.38-35.77
	c-58.35-40.38-82.59-111.38-84.09-179.5c-0.05-2.36-0.08-4.73-0.08-7.1l1.1-484.06c0.02-6.09-3.97-11.48-9.83-13.3l-98.61-29
	c-10.86-3.37-10.34-18.79,0.73-21.43l124.76-29.71c2.15-0.52,4.34-0.77,6.52-0.77c2.82,0,5.64,0.42,8.36,1.27l129.71,39.02
	c5.95,1.85,9.99,7.33,9.97,13.51l-1.04,484.14c0,14.37,1.4,27.4,4.26,38.87c6.51,26.17,20.43,44.54,41.57,53.68
	c12.03,5.17,25.18,7.46,38.5,7.46c22.32,0,45.11-6.42,63.94-16.42c27.63-14.68,48.72-39.16,59.6-68.27
	c11.04-29.55,11.75-251.37,11.04-372.06c0-0.46-0.01-0.93-0.01-1.39c0.61-4.26,4.3-6.61,7.97-6.61c3.19,0,6.36,1.77,7.52,5.59
	l0.05,0.21l98.53,452.43C629.27,846.64,628.34,852.19,625.44,856.78L625.44,856.78z M775.43,269.57l-83.81,318.38
	c-0.69,2.98-3.16,4.45-5.62,4.45c-2.53,0-5.07-1.55-5.68-4.63L574.45,98.04c-1.06-4.89-4.69-8.85-9.51-10.35L444.59,53.93
	c-10.86-3.36-10.34-18.78,0.72-21.43L559.2,5.29c1.62-0.39,3.28-0.59,4.94-0.59c2.12,0,4.24,0.32,6.28,0.95l153.51,43.89
	c4.88,1.51,8.55,5.55,9.56,10.53l41.98,207.08C775.63,267.95,775.61,268.77,775.43,269.57L775.43,269.57z M1129.17,884.87
	l-121.02,28.03c-1.48,0.34-2.95,0.51-4.39,0.51c-10.27,0-19.1-8.28-19.1-19.01V227.74c0-6.08-3.98-11.45-9.82-13.26l-123.99-39.66
	c-10.86-3.37-10.34-18.8,0.73-21.43l114.14-27.19c1.61-0.39,3.26-0.58,4.91-0.58c2.12,0,4.24,0.32,6.28,0.95l155.29,49.58
	c7.01,2.19,11.77,8.63,11.77,15.91v674.28C1143.96,875.2,1137.83,882.86,1129.17,884.87L1129.17,884.87z M837.2,852.06l-89.74,21.4
	c-1.13,0.27-2.25,0.4-3.33,0.4c-8.84,0-15.88-8.39-13.49-17.44l104.7-395.49c1.12-4.25,4.57-6.22,8.04-6.22
	c4.24,0,8.49,2.96,8.49,8.34v370.53C851.87,842.36,845.81,850.01,837.2,852.06L837.2,852.06z"/>
</svg>
